<svg width="552" height="338" viewBox="0 0 552 338" fill="none" xmlns="http://www.w3.org/2000/svg">
<path d="M387.5 164.036C137.097 129.502 29.4782 152.626 9 169.19C27.195 180.854 80.5436 192.803 178 191.412M388 173.689C302.725 185.544 233.269 190.624 178 191.412M36.5 160.535C35.3333 163.535 33.7 171.135 36.5 177.535M163 159.035V179.035M178.5 143.035V121.535H193L298 77.0436M456.5 130.035L502 124.535M490.5 130.535L522.5 125.035M506 108.295C477.839 101.175 438.792 101.963 420.5 103.535L526 23.5351C504.8 5.13513 487.833 3.86846 482 5.53513L323 71.5351H311L298 77.0436M506 108.295C510.683 109.479 515.065 110.881 519 112.535V122.267M506 108.295V122.522M506 108.295L523.5 100.535L546 41.0352C534.8 27.4352 528.667 26.3685 527 27.5352L431 100.535M506 131.751C504.687 132.013 503.353 132.275 502 132.535H457.5C454.833 132.368 447 131.435 437 129.035C447.34 126.943 472.461 123.523 506 122.522M506 131.751C510.62 130.828 514.977 129.898 519 128.996M506 131.751V143.743M506 122.522C510.205 122.397 514.543 122.309 519 122.267M519 128.996C531.402 126.217 540.617 123.712 544.5 122.535C535.652 122.265 527.127 122.191 519 122.267M519 128.996V141.535L506 143.743M509 139.035L515.5 138.035M509 135.035L515.5 134.035M508.5 118.535H515.5M508.5 114.035H515.5M534.5 48.0352L515.5 98.5352M451 94.0352L520.5 39.5352M445.5 114.035H475M385.5 146.035H492.5L506 143.743M506 143.743L511 150.035V160.535H537.5V177.535H511V188.535L506 194.535V206.156M385.5 191.535H489C495.833 192.035 511.4 193.935 519 197.535V208.347M506 206.156C479.47 202.372 452.302 202.649 437 209.035C461.894 213.416 481.495 215.07 506 215.532M506 206.156C510.369 206.779 514.721 207.513 519 208.347M519 208.347C521.018 208.741 523.02 209.157 525 209.595C532.604 211.275 539.881 213.274 546.5 215.535C536.449 215.642 527.391 215.704 519 215.672M509 203.035L516 204.035M509 198.535L516 199.535M456.5 207.035L501 213.035M490 207.035L523.5 213.035M519 215.672V226.035C514.885 227.476 510.521 228.711 506 229.766M519 215.672C514.491 215.655 510.174 215.611 506 215.532M506 215.532V229.766M506 229.766C475.366 236.913 437.492 235.778 420.5 234.035L525.5 314.035C517 322.202 495.9 337.035 479.5 331.035C463.1 325.035 367 285.202 321 266.035H311.5L300.5 261.367M506 229.766L523.5 237.535L545.5 295.535C537.9 307.935 530.667 311.035 528 311.035L431.5 237.535M508.5 223.535H515.5M508.5 219.035H516M445.5 223.535H474.5M476.5 186.535L489.5 175.535V161.535L476.5 151.535M461.5 165.535L446.5 159.035H385.5M385.5 179.035H446.5L461.5 173.035M298 108.535C302.4 108.535 339.5 108.535 357.5 108.535M299.5 122.035L209 122.535L268.5 101.535M209 143.035H299.5M118.5 177.535C114.834 171.032 114.673 167.303 118.5 160.535M209 195.035H299.5M299.5 215.535H209L268.5 236.535M298 230.035H357.5M514.5 239.035L534.5 289.035M520.5 298.035L451.5 244.035M178 191.412V215.535H192.5L300.5 261.367M300.5 261.367L326 256.535M326 256.535C339.333 249.035 366.5 233.235 368.5 230.035C370.5 226.835 381.333 207.702 386.5 198.535M326 256.535L484 325.535M499.5 305.035L373 221.035M386.5 139.035L369.5 109.535C364.486 104.683 349.147 92.4872 327.044 81.5352M298 77.0436L325 80.5352C325.688 80.8672 326.369 81.2006 327.044 81.5352M484.5 11.5352L327.044 81.5352M498.5 32.5352L373 117.035M284 162.535C245.167 155.202 146.5 144.235 62.5 159.035C59.6667 161.576 55.7 169.133 62.5 179.035C92 184.868 177.6 192.435 284 176.035M222.5 179.035C205.167 181.202 157.6 184.435 106 180.035C94 176.278 77.2 166.519 106 157.535C127.333 156.035 180.5 154.235 222.5 159.035C225.168 168.182 224.992 172.476 222.5 179.035Z" stroke="#C2B27F" stroke-width="10"/>
</svg>
