<?xml version="1.0" encoding="UTF-8"?>
<svg class="board" width="24" height="24" viewBox="0 0 32 32" fill="none" xmlns="http://www.w3.org/2000/svg">
    <path class="board crown-path" d="M1 10C1 10.92 1.74667 11.6667 2.66667 11.6667C2.81333 11.6667 2.96 11.6133 3.09333 11.5733L6.66667 24.6533H25.3333L28.9067 11.5733C29.0533 11.6133 29.1867 11.6667 29.3333 11.6667C30.2533 11.6667 31 10.92 31 10C31 9.08 30.2533 8.33333 29.3333 8.33333C28.4133 8.33333 27.6667 9.08 27.6667 10C27.6667 10.4133 27.8267 10.7867 28.08 11.0667L20 18L16.4667 6.24C17.1467 6.04 17.6667 5.42667 17.6667 4.66667C17.6667 3.74667 16.92 3 16 3C15.08 3 14.3333 3.74667 14.3333 4.66667C14.3333 5.41333 14.84 6.02667 15.5333 6.24L12 18L3.92 11.0667C4.17333 10.7733 4.33333 10.4133 4.33333 10C4.33333 9.08 3.58667 8.33333 2.66667 8.33333C1.74667 8.33333 1 9.08 1 10ZM6.66667 26H25.3333C26.0667 26 26.6667 26.6 26.6667 27.3333C26.6667 28.0667 26.0667 28.6667 25.3333 28.6667H6.66667C5.93333 28.6667 5.33333 28.0667 5.33333 27.3333C5.33333 26.6 5.93333 26 6.66667 26Z" fill="#FFD322"/>
    <path class="board crown-path" d="M11.9999 18L3.91987 11.0667C4.17321 10.7734 4.33321 10.4134 4.33321 10C4.33321 9.08004 3.58654 8.33337 2.66654 8.33337C2.36215 8.33337 2.07673 8.41511 1.83105 8.55782L10.3595 22.9215L11.9999 18Z" fill="#E69A00"/>
    <path class="board crown-path" d="M9.78223 24.6533L12 18L15.5333 6.24C14.84 6.02667 14.3333 5.41333 14.3333 4.66667C14.3333 3.74667 15.08 3 16 3C16.92 3 17.6667 3.74667 17.6667 4.66667C17.6667 5.42667 17.1467 6.04 16.4667 6.24L20 18L28.08 11.0667C27.8267 10.7867 27.6667 10.4133 27.6667 10C27.6667 9.08 28.4133 8.33333 29.3333 8.33333C30.2533 8.33333 31 9.08 31 10C31 10.92 30.2533 11.6667 29.3333 11.6667C29.2207 11.6667 29.116 11.6352 29.007 11.6025C28.9741 11.5926 28.9407 11.5826 28.9067 11.5733L25.3333 24.6533H9.78223Z" fill="#FDB800"/>
    <path class="board crown-path" d="M14 28.6667H25.3333C26.0667 28.6667 26.6667 28.0667 26.6667 27.3333C26.6667 26.6 26.0667 26 25.3333 26H15C14.4477 26 14 26.4477 14 27V28.6667Z" fill="#E69900"/>
    <path class="board crown-path" d="M16 3C16 3 16 3 16 3C16.92 3 17.6667 3.74667 17.6667 4.66667C17.6667 5.42667 17.1467 6.04 16.4667 6.24L20 18L28.08 11.0667C27.8267 10.7867 27.6667 10.4133 27.6667 10C27.6667 9.08 28.4133 8.33333 29.3333 8.33333C30.2533 8.33333 31 9.08 31 10C31 10.92 30.2533 11.6667 29.3333 11.6667C29.2207 11.6667 29.116 11.6352 29.007 11.6025C28.9741 11.5926 28.9407 11.5826 28.9067 11.5733L25.3333 24.6533H16V3Z" fill="#E69900"/>
    <path class="board crown-path" d="M23 28.6667H9V27C9 26.4477 9.44772 26 10 26H22C22.5523 26 23 26.4477 23 27V28.6667Z" fill="#FDB800"/>
    <path class="board crown-path" d="M20.0002 18L28.0802 11.0667C27.8268 10.7734 27.6668 10.4134 27.6668 10C27.6668 9.08004 28.4135 8.33337 29.3335 8.33337C29.6379 8.33337 29.9233 8.41511 30.169 8.55782L21.6405 22.9215L20.0002 18Z" fill="#FFD322"/>
    <path d="M13.0113 12.8965L11.5211 17.856L12.4788 18.1438L13.969 13.1843L13.0113 12.8965ZM3.03367 11.5916L2.73745 10.6365L2.73745 10.6365L3.03367 11.5916ZM3.09333 11.5733L4.05798 11.3098L3.78783 10.3209L2.80597 10.6155L3.09333 11.5733ZM6.66667 24.6533L5.70202 24.9169L5.90321 25.6533H6.66667V24.6533ZM25.3333 24.6533V25.6533H26.0968L26.298 24.9169L25.3333 24.6533ZM28.9067 11.5733L29.1698 10.6086L28.2054 10.3455L27.942 11.3098L28.9067 11.5733ZM29.007 11.6025L29.3232 10.6538L29.3089 10.6491L29.2944 10.6447L29.007 11.6025ZM29.007 11.6025L28.6908 12.5512L28.7058 12.5562L28.7209 12.5607L29.007 11.6025ZM29.0477 11.6147L28.7616 12.5729L28.7645 12.5737L29.0477 11.6147ZM29.6691 11.6328L29.4685 10.6531L29.4684 10.6531L29.6691 11.6328ZM28.08 11.0667L28.7312 11.8256L29.5103 11.157L28.8215 10.3958L28.08 11.0667ZM20 18L19.0423 18.2877L19.4846 19.7599L20.6512 18.7589L20 18ZM16.4667 6.24L16.1845 5.28063L15.2195 5.56445L15.509 6.52775L16.4667 6.24ZM16.7135 6.14615L17.14 7.05061L17.14 7.05061L16.7135 6.14615ZM16.3226 3.03125L16.5154 2.05L16.5154 2.05L16.3226 3.03125ZM16.0413 3.0005L16.0169 4.00021L16.0169 4.00021L16.0413 3.0005ZM15.947 3.00083L15.9158 2.00132L15.9158 2.00132L15.947 3.00083ZM15.6642 3.03388L15.4636 2.05421L15.4636 2.05421L15.6642 3.03388ZM15.5333 6.24L16.491 6.52775L16.7769 5.57636L15.8274 5.28422L15.5333 6.24ZM12 18L11.3488 18.7589L12.5154 19.7599L12.9577 18.2877L12 18ZM3.92 11.0667L3.16318 10.413L2.50747 11.1723L3.2688 11.8256L3.92 11.0667ZM2.15833 8.41238L2.46324 9.36476L2.46332 9.36473L2.15833 8.41238ZM1.83105 8.55782L1.32877 7.69312L0.459312 8.19816L0.96912 9.06484L1.83105 8.55782ZM1.83107 8.55784L2.33342 9.42251L3.20277 8.91743L2.693 8.05082L1.83107 8.55784ZM25.6012 28.6395L25.3994 27.66L25.3994 27.66L25.6012 28.6395ZM2.66667 10.6667C2.29895 10.6667 2 10.3677 2 10H0C0 11.4723 1.19438 12.6667 2.66667 12.6667V10.6667ZM2.73745 10.6365C2.70686 10.646 2.68589 10.6525 2.6661 10.6582C2.64719 10.6637 2.63533 10.6667 2.62791 10.6685C2.61109 10.6724 2.62832 10.6667 2.66667 10.6667V12.6667C2.96952 12.6667 3.2413 12.5742 3.3299 12.5468L2.73745 10.6365ZM2.80597 10.6155C2.78116 10.623 2.75679 10.6305 2.73745 10.6365L3.32989 12.5468C3.35085 12.5403 3.36628 12.5355 3.3807 12.5312L2.80597 10.6155ZM7.63132 24.3898L4.05798 11.3098L2.12868 11.8369L5.70202 24.9169L7.63132 24.3898ZM9.78223 23.6533H6.66667V25.6533H9.78223V23.6533ZM25.3333 23.6533H9.78223V25.6533H25.3333V23.6533ZM27.942 11.3098L24.3687 24.3898L26.298 24.9169L29.8713 11.8369L27.942 11.3098ZM29.2944 10.6447C29.2633 10.6354 29.218 10.6217 29.1698 10.6086L28.6435 12.5381C28.6634 12.5435 28.6847 12.5499 28.7195 12.5603L29.2944 10.6447ZM29.3232 10.6538L29.3232 10.6538L28.6907 12.5512L28.6908 12.5512L29.3232 10.6538ZM29.3337 10.6564L29.293 10.6443L28.7209 12.5607L28.7616 12.5729L29.3337 10.6564ZM29.3333 10.6667C29.3659 10.6667 29.386 10.6707 29.3863 10.6708C29.3863 10.6708 29.3853 10.6706 29.383 10.6701C29.3808 10.6695 29.3774 10.6687 29.3727 10.6675C29.3629 10.6649 29.35 10.6613 29.3309 10.6556L28.7645 12.5737C28.8665 12.6039 29.079 12.6667 29.3333 12.6667V10.6667ZM29.4684 10.6531C29.4256 10.6619 29.3805 10.6667 29.3333 10.6667V12.6667C29.5161 12.6667 29.6956 12.6481 29.8697 12.6125L29.4684 10.6531ZM30 10C30 10.3204 29.7719 10.591 29.4685 10.6531L29.8697 12.6125C31.0847 12.3636 32 11.2896 32 10H30ZM29.3333 9.33333C29.701 9.33333 30 9.63228 30 10H32C32 8.52772 30.8056 7.33333 29.3333 7.33333V9.33333ZM28.6667 10C28.6667 9.63229 28.9656 9.33333 29.3333 9.33333V7.33333C27.8611 7.33333 26.6667 8.52771 26.6667 10H28.6667ZM28.8215 10.3958C28.7237 10.2876 28.6667 10.1496 28.6667 10H26.6667C26.6667 10.677 26.9297 11.2857 27.3385 11.7376L28.8215 10.3958ZM20.6512 18.7589L28.7312 11.8256L27.4288 10.3078L19.3488 17.2411L20.6512 18.7589ZM15.509 6.52775L19.0423 18.2877L20.9577 17.7123L17.4244 5.95225L15.509 6.52775ZM16.2869 5.24168C16.2539 5.25723 16.2197 5.27028 16.1845 5.28063L16.7488 7.19937C16.8836 7.15972 17.0144 7.10985 17.14 7.05061L16.2869 5.24168ZM16.6667 4.66667C16.6667 4.91085 16.5235 5.13011 16.2869 5.24168L17.14 7.05061C18.0136 6.63864 18.6667 5.75249 18.6667 4.66667H16.6667ZM16.1299 4.0125C16.4359 4.0726 16.6667 4.34439 16.6667 4.66667H18.6667C18.6667 3.3697 17.7409 2.2907 16.5154 2.05L16.1299 4.0125ZM16.0169 4.00021C16.0561 4.00116 16.0938 4.00541 16.1299 4.0125L16.5154 2.05C16.3688 2.02121 16.2185 2.00452 16.0656 2.0008L16.0169 4.00021ZM16 4C16.0057 4 16.0113 4.00007 16.0169 4.00021L16.0656 2.0008C16.0438 2.00027 16.0219 2 16 2V4ZM15.9783 4.00034C15.9855 4.00011 15.9927 4 16 4V2C15.9718 2 15.9438 2.00044 15.9158 2.00132L15.9783 4.00034ZM15.8649 4.01355C15.9012 4.00612 15.939 4.00157 15.9783 4.00034L15.9158 2.00132C15.762 2.00613 15.6108 2.02406 15.4636 2.05421L15.8649 4.01355ZM15.3333 4.66667C15.3333 4.34628 15.5614 4.0757 15.8649 4.01355L15.4636 2.05421C14.2486 2.30305 13.3333 3.37705 13.3333 4.66667H15.3333ZM15.8274 5.28422C15.5108 5.1868 15.3333 4.93107 15.3333 4.66667H13.3333C13.3333 5.8956 14.1692 6.86653 15.2392 7.19578L15.8274 5.28422ZM12.9577 18.2877L16.491 6.52775L14.5756 5.95225L11.0423 17.7123L12.9577 18.2877ZM3.2688 11.8256L11.3488 18.7589L12.6512 17.2411L4.5712 10.3078L3.2688 11.8256ZM3.33333 10C3.33333 10.1377 3.2846 10.2725 3.16318 10.413L4.67682 11.7203C5.06207 11.2742 5.33333 10.6889 5.33333 10H3.33333ZM2.66667 9.33333C3.03438 9.33333 3.33333 9.63228 3.33333 10H5.33333C5.33333 8.52772 4.13895 7.33333 2.66667 7.33333V9.33333ZM2.46332 9.36473C2.52624 9.34458 2.59422 9.33333 2.66667 9.33333V7.33333C2.38462 7.33333 2.11097 7.37751 1.85333 7.46002L2.46332 9.36473ZM2.33334 9.42252C2.37436 9.39869 2.41785 9.37929 2.46324 9.36476L1.85341 7.46C1.66876 7.51912 1.49306 7.59768 1.32877 7.69312L2.33334 9.42252ZM2.693 8.05082L2.69299 8.0508L0.96912 9.06484L0.969135 9.06486L2.693 8.05082ZM2 10C2 9.75552 2.13169 9.53971 2.33342 9.42251L1.32872 7.69318C0.536845 8.15324 0 9.01336 0 10H2ZM10 25H6.66667V27H10V25ZM10 27H15V25H10V27ZM15 27H22V25H15V27ZM25.3333 25H22V27H25.3333V25ZM27.6667 27.3333C27.6667 26.0477 26.619 25 25.3333 25V27C25.5144 27 25.6667 27.1523 25.6667 27.3333H27.6667ZM25.803 29.6189C26.8625 29.4006 27.6667 28.461 27.6667 27.3333H25.6667C25.6667 27.489 25.5521 27.6286 25.3994 27.66L25.803 29.6189ZM25.3333 29.6667C25.4933 29.6667 25.6505 29.6503 25.803 29.6189L25.3994 27.66C25.3786 27.6643 25.3567 27.6667 25.3333 27.6667V29.6667ZM23 29.6667H25.3333V27.6667H23V29.6667ZM23 27.6667H9V29.6667H23V27.6667ZM6.66667 29.6667H9V27.6667H6.66667V29.6667ZM4.33333 27.3333C4.33333 28.619 5.38105 29.6667 6.66667 29.6667V27.6667C6.48562 27.6667 6.33333 27.5144 6.33333 27.3333H4.33333ZM6.66667 25C5.38105 25 4.33333 26.0477 4.33333 27.3333H6.33333C6.33333 27.1523 6.48562 27 6.66667 27V25Z" fill="#A36E17" style="mix-blend-mode:multiply" mask="url(#path-8-inside-1_34_5514)"></path>
</svg>